<svg width="301" height="385" viewBox="0 0 301 385" fill="none" xmlns="http://www.w3.org/2000/svg">
<path d="M300.916 196.17C300.17 173.224 293.427 149.409 281.003 125.286L280.244 126.48L264.269 153.478L250.515 162.486L219.707 177.675L201.151 185.986L202.67 198.51L204.197 214.946L204.847 226.478L205.058 238.234L204.553 245.759L203.298 246.799L145.105 267.252L99.4499 247.545L98.3304 241.636L96.952 230.464L95.9731 217.514V195.722L96.9344 179.559L99.0065 159.308L100.064 154.343L97.83 145.063L95.9731 131.972L96.1355 126.125L97.6368 118.478L99.6474 113.894L102.075 110.822L108.493 107.261L113.089 106.748L116.887 99.7853L121.979 93.319L127.014 88.9291L130.877 86.8087L129.832 71.6987L127.361 67.4975L126.123 64.9426L123.739 64.0646L120.197 62.054L114.929 57.089L111.061 49.3013L109.639 41.7156L109.384 41.777L109.507 41.0088L109.433 40.6269L109.586 40.4996L110.297 35.9209C89.6823 48.3004 70.235 66.8215 53.9923 86.0493C24.9707 120.462 6.04576 157.135 1.20369 194.774C-3.51546 232.409 5.61555 271.018 29.0577 291.879C52.4998 312.634 90.1388 315.646 124.872 329.408C159.499 343.28 191.225 367.802 216.498 363.5C241.766 359.088 260.586 325.747 275.643 293.385C290.696 260.895 302.097 229.397 300.916 196.17Z" fill="#341B48"/>
<path d="M170.619 24.5291L163.968 31.2412L157.822 35.5916L159.635 39.6786L161.545 45.0299L162.357 50.3681L162.774 56.1979L162.054 62.9364L159.03 70.6626L156.08 75.0525L151.448 78.9288L146.747 80.575L147.041 82.2871L147.322 85.8736L149.078 86.1765L155.838 89.0168L160.044 91.2381L165.391 95.5797L170.786 101.102L175.966 108.302L181.967 117.92L185.343 125.637L189.965 137.784L191.348 142.451L192.064 142.855L196.107 139.224L208.653 129.378L220.392 120.277L223.631 115.409L227.758 110.953L233.166 107.591L237.166 108.951L241.024 113.341L242.249 119.206L239.137 125.55L232.942 132.455L227.609 136.147L221.564 144.417L213.943 154.484L211.032 158.206L228.096 151.086L244.914 143.869L265.84 108.675L269.449 105.273C266.768 101.085 263.922 96.8923 260.911 92.6956C238.166 60.917 205.852 29.0419 171.664 22.1014L170.619 24.5291Z" fill="#341B48"/>
<path d="M201.054 186.025C213.065 181.17 254.699 161.718 265.042 152.85C276.714 142.846 262.763 135.111 258.369 137.688C255.046 139.637 228.078 151.367 211.054 158.228" stroke="black" stroke-width="2.5" stroke-miterlimit="10" stroke-linecap="round"/>
<path d="M129.832 71.7249C128.319 69.5407 127.073 67.1825 126.123 64.701" stroke="black" stroke-width="2.5" stroke-miterlimit="10" stroke-linecap="round"/>
<path d="M152.111 28.8224C157.41 33.4186 161.374 41.2678 162.383 50.4954C164.043 65.6801 157.076 78.9552 146.747 80.575" stroke="black" stroke-width="2.5" stroke-miterlimit="10" stroke-linecap="round"/>
<path d="M198.881 173.022C205.729 209.998 205.672 244.903 204.347 246.228C201.493 249.082 135.425 262.471 99.4278 247.545C95.0861 228.669 94.353 188.769 99.8668 153.246" stroke="black" stroke-width="2.5" stroke-miterlimit="10" stroke-linecap="round"/>
<path d="M147.331 85.9921C169.175 90.821 183.051 115.001 191.704 143.184" stroke="black" stroke-width="2.5" stroke-miterlimit="10" stroke-linecap="round"/>
<path d="M113.081 106.506C117.848 96.9494 123.726 89.9124 130.877 86.8351" stroke="black" stroke-width="2.5" stroke-miterlimit="10" stroke-linecap="round"/>
<path d="M118.353 179.563C124.06 190.424 142.634 211.548 150.259 211.548C172.107 211.548 216.279 152.183 227.477 136.261C232.715 132.622 242.017 125.343 242.012 117.964C242.012 114.259 238.061 106.55 232.262 107.92C228.268 108.859 222.785 116.862 220.41 120.26C212.372 125.809 161.51 167.864 157.594 171.938C157.467 169.282 155.448 164.554 152.708 159.615" stroke="black" stroke-width="2.5" stroke-linecap="round" stroke-linejoin="round"/>
<path d="M126.123 64.7011C119.305 63.8933 109.683 53.757 109.683 38.8621C109.683 30.6222 116.373 25.8021 118.546 23.5501C122.936 18.9846 125.57 6.81134 134.846 6.81134C137.48 6.81134 141.571 8.34342 144.143 8.34342C147.361 8.34342 153.766 2 160.224 2C171.04 2 173.459 11.9563 173.459 15.0161C173.459 26.2191 159.508 34.6741 157.656 35.6838C156.87 34.3975 153.266 29.5862 152.067 28.8575C150.623 31.8602 140.917 36.8339 133.594 41.2985C131.628 42.5013 130.008 47.5892 128.867 52.7342" stroke="black" stroke-width="2.5" stroke-linecap="round" stroke-linejoin="round"/>
<path d="M127.159 62.7432C126.207 62.9643 125.213 62.9283 124.28 62.6388C123.346 62.3493 122.507 61.8168 121.847 61.0958C121.187 60.3748 120.731 59.4914 120.526 58.536C120.32 57.5806 120.372 56.5878 120.677 55.6592C120.982 54.7307 121.528 53.8999 122.259 53.2521C122.991 52.6042 123.882 52.1626 124.84 51.9726C125.799 51.7826 126.791 51.8509 127.714 52.1707C128.638 52.4904 129.46 53.05 130.095 53.7921" stroke="black" stroke-width="2.5" stroke-miterlimit="10" stroke-linecap="round"/>
<path d="M146.747 80.575C146.944 82.4143 147.142 84.2581 147.33 85.9921" stroke="black" stroke-width="2.5" stroke-miterlimit="10" stroke-linecap="round"/>
<path d="M142.514 97.3444C137.65 97.4322 131.54 96.4664 131.421 94.7499L129.832 71.7249" stroke="black" stroke-width="2.5" stroke-miterlimit="10" stroke-linecap="round"/>
<path d="M104.819 108.824C85.4241 119.391 102.769 174.269 115.012 179.888C128.858 179.888 156.791 159.848 156.791 153.083C156.791 146.318 129.964 95.1275 104.819 108.824Z" stroke="black" stroke-width="2.5" stroke-miterlimit="10" stroke-linecap="round"/>
<path d="M203.284 246.799C200.365 247.984 192.125 249.938 181.142 251.579L155.153 346.059L172.296 384.69H213.478C213.478 368.193 210.497 274.477 203.284 246.799Z" fill="#E85D5D"/>
<path d="M99.6968 247.417C90.8298 288.296 99.2258 376.921 101.551 384.879H159.599C163.653 373.876 180.839 275.973 184.962 250.467C162.844 254.428 124.204 257.791 99.6968 247.417Z" fill="#FF7575"/>
<path d="M266.903 112.88C266.903 121.989 277.738 126.796 279.314 126.796C282.615 126.796 282.615 116.827 282.615 114.246C282.615 108.363 276.877 104.057 272.518 104.057C268.159 104.057 266.903 107.718 266.903 112.88Z" stroke="black" stroke-width="2.5" stroke-miterlimit="10" stroke-linecap="round"/>
<path d="M272.487 123.271C270.911 123.271 269.098 120.857 266.89 112.88C266.89 107.718 268.11 104.057 272.487 104.057C274.607 104.057 275.924 104 277.878 105.712L276.947 80.4432L239.449 83.3713L248.466 155.098L279.964 151.806L278.536 126.564C278.536 126.564 275.891 125.37 275.683 125.466C275.475 125.563 272.487 123.271 272.487 123.271Z" fill="#FF7575"/>
</svg>
