<svg width="410" height="475" viewBox="0 0 410 475" fill="none" xmlns="http://www.w3.org/2000/svg">
<path d="M354.013 142.055C340.317 94.4826 385.215 19.9914 325.193 11.4896C265.046 2.98772 220.184 18.2648 183.823 28.4058C173.296 31.2835 163.483 33.7459 153.837 36.0626C159.928 42.6192 163.651 50.3416 163.651 52.9569C163.651 57.7652 152.825 99.2617 142.596 99.2617C132.368 99.2617 121.549 57.1314 121.549 46.9102C121.559 45.8091 121.635 44.7095 121.775 43.6173C108.247 46.8374 93.9311 50.3926 77.4592 54.9968C35.5547 66.7041 64.4989 109.519 50.9484 142.055C37.3906 174.715 -18.6763 197.102 6.35565 250.838C65.5188 292.13 52.6896 365.339 94.7179 389.125C100.612 392.444 106.864 395.084 113.353 396.993C113.608 395.748 113.842 394.604 114.038 393.591C108.625 367.736 109.849 321.242 111.649 316.426C111.649 316.426 212.141 336.781 218.741 338.078C220.461 332.345 229.968 306.788 234.936 303.153C239.905 299.517 288.847 282.703 288.847 282.703C288.847 282.703 288.81 256.156 289.415 250.146C219.054 201.437 261.352 159.081 263.757 162.067C266.161 165.054 353.765 239.05 354.013 243.858C354.239 249.126 343.639 293.187 335.122 319.428C355.091 302.22 374.506 282.652 394.373 260.702C439.935 210.412 367.673 189.751 354.013 142.055ZM119.145 273.618C107.117 273.618 73.4451 226.112 73.4451 206.871C73.4451 196.046 80.0601 170.788 98.7029 170.788C104.116 170.788 116.144 180.412 117.943 182.816C119.796 184.735 121.762 186.542 123.83 188.229C123.451 190.145 122.373 195.448 121.265 200.985C130.357 211.264 147.412 232.902 147.412 248.965C147.412 262.8 144.403 273.618 119.145 273.618ZM129.344 188.229C120.923 188.229 101.661 160.545 101.661 126.894C101.661 116.695 110.082 107.05 122.715 107.05C151.579 107.05 153.983 167.182 153.983 171.99C154.027 178.605 147.412 188.229 129.374 188.229H129.344Z" fill="#341B48"/>
<path d="M323.182 28.7264L178.52 0.335927C173.714 -0.591782 168.737 0.419828 164.675 3.14982C160.612 5.87981 157.795 10.1063 156.839 14.9063L137.446 113.716C152.504 129.503 154.027 168.172 154.027 171.997C154.027 178.612 147.412 188.236 129.374 188.236C127.727 188.236 125.666 187.165 123.415 185.22L122.963 187.522C123.538 188.017 123.83 188.251 123.83 188.251C123.466 190.094 122.373 195.652 121.265 201.007C130.357 211.264 147.412 232.902 147.412 248.965C147.412 262.807 144.403 273.619 119.145 273.619C116.231 273.619 112.108 270.872 107.489 266.428L101.661 296.297C100.891 300.294 101.456 304.434 103.27 308.078C105.084 311.722 108.046 314.668 111.7 316.463C112.144 316.55 212.032 336.781 218.792 338.107C220.512 332.374 230.019 306.817 234.987 303.182C239.956 299.547 288.898 282.732 288.898 282.732C288.898 282.732 288.862 256.185 289.466 250.175C219.106 201.466 261.404 159.11 263.808 162.097C264.988 163.554 286.508 181.993 308.247 201.007L337.745 50.4071C338.673 45.6026 337.663 40.626 334.934 36.564C332.206 32.502 327.981 29.6844 323.182 28.7264Z" fill="white"/>
<rect x="171.905" y="18.5732" width="155.592" height="158.994" rx="10" transform="rotate(11.5 171.905 18.5732)" fill="#FF6666"/>
<path d="M134.182 25.8633C124.558 25.8633 121.549 40.8999 121.549 46.9102C121.549 57.1095 132.375 99.2326 142.596 99.2326C152.817 99.2326 163.651 57.7069 163.651 52.9278C163.651 48.1487 151.018 25.8633 134.182 25.8633Z" fill="#FFE0E0" stroke="black" stroke-width="2.5" stroke-linecap="round" stroke-linejoin="round"/>
<path d="M122.759 107.086C110.126 107.086 101.705 116.702 101.705 126.931C101.705 160.603 120.952 188.265 129.388 188.265C147.427 188.265 154.042 178.641 154.042 172.026C154.027 167.182 151.623 107.086 122.759 107.086Z" fill="#FFE0E0" stroke="black" stroke-width="2.5" stroke-linecap="round" stroke-linejoin="round"/>
<path d="M121.265 200.985C130.357 211.264 147.412 232.901 147.412 248.965C147.412 262.807 144.403 273.618 119.145 273.618C107.117 273.618 73.4448 226.112 73.4448 206.871C73.4448 196.046 80.0598 170.788 98.7026 170.788C104.116 170.788 116.143 180.412 117.943 182.816C119.796 184.735 121.762 186.542 123.829 188.229C123.45 190.145 122.372 195.448 121.265 200.985Z" stroke="black" stroke-width="2.5" stroke-linecap="round" stroke-linejoin="round"/>
<path d="M116.144 195.448C116.916 196.221 118.796 198.18 121.244 200.985" stroke="black" stroke-width="2.5" stroke-linecap="round" stroke-linejoin="round"/>
<path d="M125.199 205.597C125.199 205.597 116.1 194.785 110.687 189.977" stroke="black" stroke-width="2.5" stroke-linecap="round" stroke-linejoin="round"/>
<path d="M226.522 472.971L239.752 420.051C239.752 420.051 320.297 349.683 328.114 337.065C335.931 324.447 354.275 250.772 354.013 243.858C353.802 239.05 266.212 165.076 263.808 162.067C261.404 159.059 219.106 201.408 289.466 250.146C288.861 256.156 288.898 282.703 288.898 282.703C288.898 282.703 239.956 299.525 234.987 303.153C230.019 306.781 220.512 332.345 218.792 338.078C212.177 336.781 111.7 316.426 111.7 316.426C109.9 321.242 108.676 367.736 114.089 393.591C110.447 412.234 96.0439 473 96.0439 473" fill="#FFE0E0"/>
<path d="M226.522 472.971L239.752 420.051C239.752 420.051 320.297 349.683 328.114 337.065C335.931 324.447 354.275 250.772 354.013 243.858C353.802 239.05 266.212 165.076 263.808 162.067C261.404 159.059 219.106 201.408 289.466 250.146C288.861 256.156 288.898 282.703 288.898 282.703C288.898 282.703 239.956 299.525 234.987 303.153C230.019 306.781 220.512 332.345 218.792 338.078C212.177 336.781 111.7 316.426 111.7 316.426C109.9 321.242 108.676 367.736 114.089 393.591C110.447 412.234 96.0439 473 96.0439 473" stroke="black" stroke-width="2.5" stroke-linecap="round" stroke-linejoin="round"/>
<path d="M208.535 368.21C210.174 361.944 218.122 339.44 220.096 334.071" stroke="black" stroke-width="2.5" stroke-linecap="round" stroke-linejoin="round"/>
<path d="M211.801 82.5341L228.81 85.9946L225.349 103.003L208.341 99.5428L211.801 82.5341Z" stroke="#341B48" stroke-width="4" stroke-linecap="round" stroke-linejoin="round"/>
<path d="M204.253 117.895L221.602 121.425L218.072 138.773L200.724 135.244L204.253 117.895Z" stroke="#341B48" stroke-width="4" stroke-linecap="round" stroke-linejoin="round"/>
<path d="M237.777 133.47L239.597 124.527" stroke="#341B48" stroke-width="4" stroke-linecap="round" stroke-linejoin="round"/>
<path d="M253.131 144.975L244.188 143.155" stroke="#341B48" stroke-width="4" stroke-linecap="round" stroke-linejoin="round"/>
<path d="M260.691 109.634L243.343 106.104L246.873 88.7555L264.221 92.2851L260.691 109.634Z" stroke="#341B48" stroke-width="4" stroke-linecap="round" stroke-linejoin="round"/>
<path d="M278.608 104.424L281.772 88.8727C282.778 83.9319 279.59 79.116 274.649 78.1108L259.098 74.9469" stroke="#341B48" stroke-width="4" stroke-linecap="round" stroke-linejoin="round"/>
<path d="M249.88 126.619L256.587 127.984" stroke="#341B48" stroke-width="4" stroke-linecap="round" stroke-linejoin="round"/>
<path d="M256.586 127.984L255.222 134.691" stroke="#341B48" stroke-width="4" stroke-linecap="round" stroke-linejoin="round"/>
<path d="M223.132 67.6296L207.581 64.4657C202.64 63.4605 197.824 66.6481 196.819 71.5888L193.655 87.1399" stroke="#341B48" stroke-width="4" stroke-linecap="round" stroke-linejoin="round"/>
<path d="M186.337 123.106L183.173 138.657C182.168 143.598 185.355 148.414 190.296 149.419L205.847 152.583" stroke="#341B48" stroke-width="4" stroke-linecap="round" stroke-linejoin="round"/>
<path d="M241.814 159.901L257.365 163.065C262.305 164.07 267.121 160.882 268.127 155.941L271.29 140.39" stroke="#341B48" stroke-width="4" stroke-linecap="round" stroke-linejoin="round"/>
</svg>
