<svg width="399" height="422" viewBox="0 0 399 422" fill="none" xmlns="http://www.w3.org/2000/svg">
<g clip-path="url(#clip0)">
<path d="M376 126.584C371.5 59.2025 243.885 -8.33919 195.102 2.03103C146.32 12.3129 89.0177 72.8545 65.9998 118C42.9818 163.146 15.3263 218.296 23.4998 253C31.6734 287.704 69.2112 282.313 109 312C148.778 341.598 200.544 375.706 248 364C295.456 352.294 342.91 301.575 357 242.036C371.09 182.497 413.692 175.08 376 126.584ZM266.727 192.387C265.296 196.068 261.696 199.148 256.885 201.571C250.28 221.914 240.5 242.036 240.5 242.036C240.5 242.036 232.794 235.557 230.185 231.942C231.572 229.354 234.379 218.117 236.641 207.261C225.771 208.646 214.625 207.896 207.976 204.711C204.465 201.919 197.997 165.901 203.188 135.889C198.683 133.213 194.668 129.784 191.316 125.751C191.238 120.955 205.626 103.36 217.218 99.298C217.069 95.0098 215.941 86.516 215.154 82.1229C210.552 77.1558 207.877 69.4899 208.472 61.0789C208.628 58.8364 209.019 56.6166 209.639 54.4561C209.061 44.5219 211.515 32.5346 230.24 31.9165C250.737 31.9165 258.278 49.7042 258.597 61.2059C258.597 98.7737 272.192 103.2 272.192 126.584C272.192 137.12 269.825 144.245 266.138 149.008C269.027 167.094 269.148 184.666 266.727 192.387Z" fill="#341B48"/>
<path fill-rule="evenodd" clip-rule="evenodd" d="M271.603 134.967C270.7 140.983 268.791 145.487 266.22 148.859C269.192 167.071 269.335 184.859 266.897 192.63C265.439 196.388 261.718 199.523 256.759 201.968C250.154 222.173 240.5 242.036 240.5 242.036C240.5 242.036 232.794 235.557 230.185 231.942C231.561 229.376 234.33 218.304 236.581 207.537C225.787 208.883 214.735 208.089 208.147 204.959C204.167 201.792 196.39 155.984 206.077 124.57L125.261 111.743L110.373 122.522L99.5408 107.621L24.0802 95.6445L0 248.212L76.2257 260.31L90.228 250.155L100.421 264.151L374.925 307.718L399 155.189L271.603 134.967Z" fill="white"/>
<path d="M215.324 82.5809C216.045 87.3825 217.025 92.8077 217.091 97.2339C217.136 97.868 217.106 98.5052 217.003 99.1324" stroke="black" stroke-width="2.5" stroke-linecap="round" stroke-linejoin="round"/>
<path d="M190 121C193.023 112.887 212.72 94.5519 224 98.5673" stroke="black" stroke-width="2.5" stroke-linecap="round" stroke-linejoin="round"/>
<path d="M90.1123 250.894L110.477 121.909" stroke="#F3F3F3" stroke-width="4.41" stroke-linejoin="round"/>
<path d="M266.341 196.769L308.04 203.392" stroke="#F3F3F3" stroke-width="4.41" stroke-linecap="round" stroke-linejoin="round"/>
<path d="M134.701 175.874L203.237 186.752" stroke="#F3F3F3" stroke-width="4.41" stroke-linecap="round" stroke-linejoin="round"/>
<path d="M131.866 194.402L209.936 206.792" stroke="#F3F3F3" stroke-width="4.41" stroke-linecap="round" stroke-linejoin="round"/>
<path d="M268.967 234.828L324.927 243.714" stroke="#F3F3F3" stroke-width="4.41" stroke-linecap="round" stroke-linejoin="round"/>
<path d="M129.681 212.725L205.637 224.778" stroke="#F3F3F3" stroke-width="4.41" stroke-linecap="round" stroke-linejoin="round"/>
<path d="M209.705 54.5112C208.95 44.4446 210.992 31.7729 230.251 31.1382C250.748 31.1382 258.289 48.926 258.608 60.4276C258.608 98.8565 272.203 105.363 272.203 125.806C272.203 136.292 269.853 143.395 266.149 148.185" stroke="black" stroke-width="2.5" stroke-linecap="round" stroke-linejoin="round"/>
<path fill-rule="evenodd" clip-rule="evenodd" d="M267.25 191.129C270.915 209.044 272.754 265.084 272.132 277.656C275.803 285.841 337.08 362.858 337.08 362.858L326.853 375.762C326.853 375.762 243.263 311.741 238.788 304.434C237.825 302.867 234.897 298.468 231.633 292.099" fill="#E85D5D"/>
<path d="M236.62 207.288C225.815 208.641 214.747 207.874 208.147 204.711C202.715 200.39 190.215 116.628 224.659 98.4536" stroke="black" stroke-width="2.5" stroke-linecap="round" stroke-linejoin="round"/>
<path d="M241.204 96.6379C264.778 106.572 272.396 174.864 266.897 192.387C265.444 196.124 261.767 199.236 256.852 201.676" stroke="black" stroke-width="2.5" stroke-linecap="round" stroke-linejoin="round"/>
<path d="M235.023 148.279C236.295 157.949 239.647 180.179 239.977 185.809C240.351 191.913 232.767 227.201 230.158 232.047C232.767 235.656 240.472 242.141 240.472 242.141C240.472 242.141 254.893 212.482 260.524 188.75C262.147 181.907 258.542 150.906 256.996 143.494" stroke="black" stroke-width="2.5" stroke-miterlimit="10" stroke-linecap="round"/>
<path fill-rule="evenodd" clip-rule="evenodd" d="M175.194 400.316L166.437 421.288L128.035 406.133L160.548 402.159L164.538 394.736L175.194 400.316Z" stroke="black" stroke-width="2.5" stroke-linecap="round" stroke-linejoin="round"/>
<path fill-rule="evenodd" clip-rule="evenodd" d="M334.801 363.785L354.296 375.431L333.931 411.425L334.581 378.587L327.822 373.582L334.801 363.785Z" stroke="black" stroke-width="2.5" stroke-linecap="round" stroke-linejoin="round"/>
<path fill-rule="evenodd" clip-rule="evenodd" d="M240.131 105.115C253.407 103.156 260.694 133.588 259.065 141.662C254.32 147.214 241.314 149.223 232.095 147.876C227.868 143.406 226.861 107.069 240.131 105.115Z" stroke="black" stroke-width="2.5" stroke-miterlimit="10" stroke-linecap="round"/>
<path d="M224.681 99.7727V87.8571" stroke="black" stroke-width="2.5" stroke-linecap="round" stroke-linejoin="round"/>
<path d="M241.204 81.3889V100.054C239.514 101.555 234.913 103.068 230.614 102.521" stroke="black" stroke-width="2.5" stroke-linecap="round" stroke-linejoin="round"/>
<path d="M232.943 62.6849C222.969 55.6372 219.645 46.4425 218.803 40.8407C213.15 45.0076 209.088 52.5189 208.471 61.3328C207.536 74.5784 214.68 85.9752 224.681 87.824" stroke="black" stroke-width="2.5" stroke-linecap="round" stroke-linejoin="round"/>
<path d="M238.876 64.0206C239.654 63.3901 240.592 62.9886 241.584 62.8608C242.577 62.7331 243.585 62.884 244.497 63.2969C245.409 63.7097 246.188 64.3682 246.749 65.1992C247.31 66.0301 247.629 67.0007 247.673 68.003C247.716 69.0054 247.48 70 246.993 70.8762C246.506 71.7524 245.785 72.4758 244.912 72.9657C244.039 73.4557 243.048 73.6931 242.048 73.6514C241.048 73.6097 240.08 73.2905 239.25 72.7296" stroke="black" stroke-width="2.5" stroke-linecap="round" stroke-linejoin="round"/>
<path fill-rule="evenodd" clip-rule="evenodd" d="M256.847 201.67C250.242 222.008 240.467 242.124 240.467 242.124C240.467 242.124 232.761 235.64 230.152 232.03C231.545 229.431 234.357 218.155 236.62 207.283C225.876 208.63 214.879 207.885 208.268 204.766C202.687 223.741 189.984 274.847 187.545 290.543C184.793 308.253 162.684 394.217 162.684 394.217L175.37 401.1C175.37 401.1 268.747 234.459 265.34 195.152C263.463 197.68 260.496 199.86 256.852 201.665" fill="#FF7575"/>
<path d="M66.1394 140.98L63.2829 133.856L67.9922 127.796L60.9347 124.779L59.9796 117.163L52.8561 120.02L46.7959 115.31L43.7787 122.368L36.1629 123.323L39.0194 130.446L34.3101 136.507L41.3676 139.524L42.3226 147.14L49.4461 144.283L55.5063 148.992L58.5236 141.935L66.1394 140.98Z" stroke="#FF6666" stroke-width="2" stroke-linecap="round" stroke-linejoin="round"/>
<path d="M55.2165 136.564C55.4147 136.827 55.3622 137.201 55.0992 137.399C54.8362 137.597 54.4624 137.544 54.2642 137.281C54.066 137.018 54.1186 136.644 54.3815 136.446C54.6445 136.248 55.0184 136.301 55.2165 136.564Z" stroke="#FF6666" stroke-width="2" stroke-linecap="round" stroke-linejoin="round"/>
<path d="M48.0432 127.029C48.2414 127.292 48.1888 127.665 47.9258 127.864C47.6629 128.062 47.289 128.009 47.0908 127.746C46.8927 127.483 46.9452 127.109 47.2082 126.911C47.4712 126.713 47.845 126.766 48.0432 127.029Z" stroke="#FF6666" stroke-width="2" stroke-linecap="round" stroke-linejoin="round"/>
<path d="M56.5966 128.048L45.7059 136.255" stroke="#FF6666" stroke-width="2" stroke-linecap="round" stroke-linejoin="round"/>
</g>
<defs>
<clipPath id="clip0">
<rect width="399" height="422" fill="white"/>
</clipPath>
</defs>
</svg>
